<mxfile host="app.diagrams.net" modified="2024-07-09T08:47:21.557Z" agent="Mozilla/5.0 (Windows NT 10.0; Win64; x64) AppleWebKit/537.36 (KHTML, like Gecko) Chrome/126.0.0.0 Safari/537.36" etag="ce1yoS1Hmxm4dsH_5FO6" version="24.6.4" type="device">
  <diagram id="gGsyFMBHE3zzi9GGf84O" name="Main">
    <mxGraphModel dx="-395" dy="128" grid="0" gridSize="7" guides="1" tooltips="1" connect="1" arrows="1" fold="1" page="0" pageScale="1" pageWidth="3300" pageHeight="4681" background="#ffffff" math="0" shadow="0">
      <root>
        <mxCell id="0" />
        <mxCell id="1" parent="0" />
        <mxCell id="BMHU2v0tJbkphv-RpU_F-3" value="&lt;font&gt;Bắt đầu&lt;/font&gt;" style="rounded=0;whiteSpace=wrap;html=1;labelBackgroundColor=none;strokeColor=#000000;strokeWidth=3;fontColor=#000000;fillColor=none;" parent="1" vertex="1">
          <mxGeometry x="3228.01" y="888" width="100" height="60" as="geometry" />
        </mxCell>
        <mxCell id="BMHU2v0tJbkphv-RpU_F-83" value="" style="edgeStyle=none;html=1;strokeWidth=2;fontColor=#000000;entryX=0.5;entryY=0;entryDx=0;entryDy=0;strokeColor=#000000;" parent="1" source="BMHU2v0tJbkphv-RpU_F-4" target="BMHU2v0tJbkphv-RpU_F-84" edge="1">
          <mxGeometry relative="1" as="geometry">
            <mxPoint x="3274.6449999999995" y="1133" as="targetPoint" />
          </mxGeometry>
        </mxCell>
        <mxCell id="BMHU2v0tJbkphv-RpU_F-4" value="&lt;font&gt;Cấu hình GPIO&lt;br&gt;Khởi tạo I2C (màn hình LCD)&lt;br&gt;Khởi tạo các biến &amp;amp; trạng thái&lt;br&gt;&lt;/font&gt;" style="rounded=0;whiteSpace=wrap;html=1;labelBackgroundColor=none;strokeColor=#000000;strokeWidth=3;fontColor=#000000;fillColor=none;" parent="1" vertex="1">
          <mxGeometry x="3173.01" y="993" width="210" height="60" as="geometry" />
        </mxCell>
        <mxCell id="BMHU2v0tJbkphv-RpU_F-6" value="" style="endArrow=classic;html=1;fontColor=#000000;exitX=0.5;exitY=1;exitDx=0;exitDy=0;entryX=0.5;entryY=0;entryDx=0;entryDy=0;strokeWidth=2;strokeColor=#000000;" parent="1" source="BMHU2v0tJbkphv-RpU_F-3" target="BMHU2v0tJbkphv-RpU_F-4" edge="1">
          <mxGeometry width="50" height="50" relative="1" as="geometry">
            <mxPoint x="3282.01" y="1046" as="sourcePoint" />
            <mxPoint x="3332.01" y="996" as="targetPoint" />
          </mxGeometry>
        </mxCell>
        <mxCell id="BMHU2v0tJbkphv-RpU_F-85" style="edgeStyle=none;html=1;exitX=0;exitY=0.5;exitDx=0;exitDy=0;strokeWidth=2;fontColor=#000000;entryX=0.5;entryY=0;entryDx=0;entryDy=0;strokeColor=#000000;" parent="1" source="BMHU2v0tJbkphv-RpU_F-84" target="BMHU2v0tJbkphv-RpU_F-86" edge="1">
          <mxGeometry relative="1" as="geometry">
            <mxPoint x="3075.01" y="1371" as="targetPoint" />
            <Array as="points">
              <mxPoint x="3054.01" y="1233" />
            </Array>
          </mxGeometry>
        </mxCell>
        <mxCell id="V-81XXpvDlPqea2ahmZ_-20" style="edgeStyle=none;html=1;exitX=1;exitY=0.5;exitDx=0;exitDy=0;entryX=0.5;entryY=0;entryDx=0;entryDy=0;strokeWidth=2;fontColor=#000000;strokeColor=#000000;" parent="1" source="BMHU2v0tJbkphv-RpU_F-84" target="V-81XXpvDlPqea2ahmZ_-18" edge="1">
          <mxGeometry relative="1" as="geometry">
            <Array as="points">
              <mxPoint x="3500.01" y="1233" />
            </Array>
          </mxGeometry>
        </mxCell>
        <mxCell id="BMHU2v0tJbkphv-RpU_F-84" value="&lt;font&gt;Thực hiện tác vụ&lt;br&gt;&lt;/font&gt;" style="rounded=0;whiteSpace=wrap;html=1;labelBackgroundColor=none;strokeColor=#000000;strokeWidth=3;fontColor=#000000;fillColor=none;" parent="1" vertex="1">
          <mxGeometry x="3173.01" y="1203" width="210" height="60" as="geometry" />
        </mxCell>
        <mxCell id="V-81XXpvDlPqea2ahmZ_-2" style="edgeStyle=none;html=1;exitX=0.5;exitY=1;exitDx=0;exitDy=0;entryX=0.5;entryY=0;entryDx=0;entryDy=0;strokeWidth=2;fontColor=#000000;strokeColor=#000000;" parent="1" source="BMHU2v0tJbkphv-RpU_F-86" target="V-81XXpvDlPqea2ahmZ_-1" edge="1">
          <mxGeometry relative="1" as="geometry" />
        </mxCell>
        <mxCell id="BMHU2v0tJbkphv-RpU_F-86" value="&lt;font&gt;Quét nút clear&lt;br&gt;&lt;/font&gt;" style="rounded=0;whiteSpace=wrap;html=1;labelBackgroundColor=none;strokeColor=#000000;strokeWidth=3;fontColor=#000000;fillColor=none;" parent="1" vertex="1">
          <mxGeometry x="2949.01" y="1345.5" width="210" height="60" as="geometry" />
        </mxCell>
        <mxCell id="V-81XXpvDlPqea2ahmZ_-4" value="" style="edgeStyle=none;html=1;strokeWidth=2;fontColor=#000000;strokeColor=#000000;" parent="1" source="V-81XXpvDlPqea2ahmZ_-1" target="V-81XXpvDlPqea2ahmZ_-3" edge="1">
          <mxGeometry relative="1" as="geometry" />
        </mxCell>
        <mxCell id="F0n1GK_Awo-oAIiUYu9Y-159" value="Đúng" style="edgeLabel;html=1;align=center;verticalAlign=middle;resizable=0;points=[];fontColor=#000000;labelBackgroundColor=#FFFFFF;labelBorderColor=#000000;" parent="V-81XXpvDlPqea2ahmZ_-4" vertex="1" connectable="0">
          <mxGeometry x="-0.3848" relative="1" as="geometry">
            <mxPoint as="offset" />
          </mxGeometry>
        </mxCell>
        <mxCell id="-s264xQ-3EtqASesLYu1-15" value="" style="edgeStyle=none;html=1;strokeWidth=2;fontColor=#000000;strokeColor=#000000;rounded=1;labelBackgroundColor=default;" parent="1" source="V-81XXpvDlPqea2ahmZ_-1" edge="1">
          <mxGeometry relative="1" as="geometry">
            <mxPoint x="2674" y="1514" as="targetPoint" />
          </mxGeometry>
        </mxCell>
        <mxCell id="F0n1GK_Awo-oAIiUYu9Y-56" value="Sai" style="edgeLabel;html=1;align=center;verticalAlign=middle;resizable=0;points=[];fontColor=#000000;labelBackgroundColor=#FFFFFF;labelBorderColor=#000000;" parent="-s264xQ-3EtqASesLYu1-15" vertex="1" connectable="0">
          <mxGeometry x="-0.3076" y="-1" relative="1" as="geometry">
            <mxPoint x="73" y="1" as="offset" />
          </mxGeometry>
        </mxCell>
        <mxCell id="V-81XXpvDlPqea2ahmZ_-1" value="Nút được nhấn" style="rhombus;whiteSpace=wrap;html=1;labelBackgroundColor=none;strokeColor=#000000;strokeWidth=3;fontColor=#000000;fillColor=none;" parent="1" vertex="1">
          <mxGeometry x="2991.57" y="1453.5" width="124.87" height="123" as="geometry" />
        </mxCell>
        <mxCell id="V-81XXpvDlPqea2ahmZ_-6" value="" style="edgeStyle=none;html=1;strokeWidth=2;fontColor=#000000;strokeColor=#000000;" parent="1" source="V-81XXpvDlPqea2ahmZ_-3" target="V-81XXpvDlPqea2ahmZ_-5" edge="1">
          <mxGeometry relative="1" as="geometry" />
        </mxCell>
        <mxCell id="F0n1GK_Awo-oAIiUYu9Y-58" value="Đúng" style="edgeLabel;html=1;align=center;verticalAlign=middle;resizable=0;points=[];fontColor=#000000;labelBackgroundColor=#FFFFFF;labelBorderColor=#000000;" parent="V-81XXpvDlPqea2ahmZ_-6" vertex="1" connectable="0">
          <mxGeometry x="-0.4463" relative="1" as="geometry">
            <mxPoint y="7" as="offset" />
          </mxGeometry>
        </mxCell>
        <mxCell id="V-81XXpvDlPqea2ahmZ_-10" value="" style="edgeStyle=none;html=1;strokeWidth=2;fontColor=#000000;strokeColor=#000000;" parent="1" source="V-81XXpvDlPqea2ahmZ_-3" target="V-81XXpvDlPqea2ahmZ_-9" edge="1">
          <mxGeometry relative="1" as="geometry" />
        </mxCell>
        <mxCell id="F0n1GK_Awo-oAIiUYu9Y-160" value="Sai" style="edgeLabel;html=1;align=center;verticalAlign=middle;resizable=0;points=[];fontColor=#000000;labelBackgroundColor=#FFFFFF;labelBorderColor=#000000;" parent="V-81XXpvDlPqea2ahmZ_-10" vertex="1" connectable="0">
          <mxGeometry x="-0.187" relative="1" as="geometry">
            <mxPoint as="offset" />
          </mxGeometry>
        </mxCell>
        <mxCell id="V-81XXpvDlPqea2ahmZ_-3" value="Nút được nhấn&lt;br&gt;trên 1000 ms" style="rhombus;whiteSpace=wrap;html=1;labelBackgroundColor=none;strokeColor=#000000;strokeWidth=3;fontColor=#000000;fillColor=none;" parent="1" vertex="1">
          <mxGeometry x="2991.57" y="1637" width="124.87" height="123" as="geometry" />
        </mxCell>
        <mxCell id="-s264xQ-3EtqASesLYu1-18" value="" style="edgeStyle=none;html=1;strokeWidth=2;fontColor=#000000;strokeColor=#000000;" parent="1" source="V-81XXpvDlPqea2ahmZ_-5" edge="1">
          <mxGeometry relative="1" as="geometry">
            <mxPoint x="3278" y="1124" as="targetPoint" />
            <Array as="points">
              <mxPoint x="3053" y="1930" />
              <mxPoint x="2675" y="1929" />
              <mxPoint x="2675" y="1125" />
            </Array>
          </mxGeometry>
        </mxCell>
        <mxCell id="V-81XXpvDlPqea2ahmZ_-5" value="Đổi chế độ input &lt;br&gt;(Nút nhấn hoặc UART)" style="whiteSpace=wrap;html=1;fillColor=none;strokeColor=#000000;fontColor=#000000;labelBackgroundColor=none;strokeWidth=3;" parent="1" vertex="1">
          <mxGeometry x="2989" y="1819" width="130" height="60" as="geometry" />
        </mxCell>
        <mxCell id="-s264xQ-3EtqASesLYu1-13" value="" style="edgeStyle=none;html=1;strokeWidth=2;fontColor=#000000;strokeColor=#000000;" parent="1" source="V-81XXpvDlPqea2ahmZ_-9" edge="1">
          <mxGeometry relative="1" as="geometry">
            <mxPoint x="2676" y="1699" as="targetPoint" />
          </mxGeometry>
        </mxCell>
        <mxCell id="V-81XXpvDlPqea2ahmZ_-9" value="Clear hết bộ nhớ kí tự và buffer, clear màn hình" style="whiteSpace=wrap;html=1;fillColor=none;strokeColor=#000000;fontColor=#000000;labelBackgroundColor=none;strokeWidth=3;" parent="1" vertex="1">
          <mxGeometry x="2760.01" y="1668.5" width="177.13" height="60" as="geometry" />
        </mxCell>
        <mxCell id="V-81XXpvDlPqea2ahmZ_-16" style="edgeStyle=none;html=1;exitX=1;exitY=0.5;exitDx=0;exitDy=0;strokeWidth=2;fontColor=#000000;strokeColor=#000000;" parent="1" source="V-81XXpvDlPqea2ahmZ_-12" edge="1">
          <mxGeometry relative="1" as="geometry">
            <mxPoint x="3278.01" y="1123.9166666666667" as="targetPoint" />
          </mxGeometry>
        </mxCell>
        <mxCell id="V-81XXpvDlPqea2ahmZ_-12" value="C" style="ellipse;whiteSpace=wrap;html=1;aspect=fixed;labelBackgroundColor=none;strokeColor=#C73500;strokeWidth=3;fontColor=#000000;fillColor=#fa6800;" parent="1" vertex="1">
          <mxGeometry x="3395.01" y="1085" width="80" height="80" as="geometry" />
        </mxCell>
        <mxCell id="V-81XXpvDlPqea2ahmZ_-23" value="" style="edgeStyle=none;html=1;strokeWidth=2;fontColor=#000000;entryX=0.5;entryY=0;entryDx=0;entryDy=0;strokeColor=#000000;" parent="1" source="V-81XXpvDlPqea2ahmZ_-18" target="V-81XXpvDlPqea2ahmZ_-24" edge="1">
          <mxGeometry relative="1" as="geometry">
            <mxPoint x="3500.0099999999993" y="1475.5" as="targetPoint" />
          </mxGeometry>
        </mxCell>
        <mxCell id="V-81XXpvDlPqea2ahmZ_-18" value="&lt;font&gt;Chạy chế độ input&lt;br&gt;&lt;/font&gt;" style="rounded=0;whiteSpace=wrap;html=1;labelBackgroundColor=none;strokeColor=#000000;strokeWidth=3;fontColor=#000000;fillColor=none;" parent="1" vertex="1">
          <mxGeometry x="3395.01" y="1345.5" width="210" height="60" as="geometry" />
        </mxCell>
        <mxCell id="-s264xQ-3EtqASesLYu1-3" value="" style="edgeStyle=none;html=1;strokeWidth=2;fontColor=#000000;entryX=0.5;entryY=0;entryDx=0;entryDy=0;strokeColor=#000000;" parent="1" source="V-81XXpvDlPqea2ahmZ_-24" target="UDB40sULyeH_-XUfqxy7-3" edge="1">
          <mxGeometry relative="1" as="geometry">
            <mxPoint x="3317.0058955223885" y="1652.5" as="targetPoint" />
            <Array as="points">
              <mxPoint x="3343.01" y="1515" />
            </Array>
          </mxGeometry>
        </mxCell>
        <mxCell id="F0n1GK_Awo-oAIiUYu9Y-61" value="Sai" style="edgeLabel;html=1;align=center;verticalAlign=middle;resizable=0;points=[];fontColor=#000000;labelBackgroundColor=none;labelBorderColor=#000000;" parent="-s264xQ-3EtqASesLYu1-3" vertex="1" connectable="0">
          <mxGeometry x="-0.6291" y="2" relative="1" as="geometry">
            <mxPoint x="-7" y="-2" as="offset" />
          </mxGeometry>
        </mxCell>
        <mxCell id="F0n1GK_Awo-oAIiUYu9Y-154" value="Sai" style="edgeLabel;html=1;align=center;verticalAlign=middle;resizable=0;points=[];fontColor=#000000;labelBackgroundColor=#FFFFFF;labelBorderColor=#000000;" parent="-s264xQ-3EtqASesLYu1-3" vertex="1" connectable="0">
          <mxGeometry x="-0.6291" y="2" relative="1" as="geometry">
            <mxPoint x="-7" y="-2" as="offset" />
          </mxGeometry>
        </mxCell>
        <mxCell id="-s264xQ-3EtqASesLYu1-10" style="edgeStyle=none;html=1;exitX=1;exitY=0.5;exitDx=0;exitDy=0;entryX=0.5;entryY=0;entryDx=0;entryDy=0;strokeWidth=2;fontColor=#000000;strokeColor=#000000;" parent="1" source="V-81XXpvDlPqea2ahmZ_-24" target="UDB40sULyeH_-XUfqxy7-1" edge="1">
          <mxGeometry relative="1" as="geometry">
            <Array as="points">
              <mxPoint x="3656.01" y="1515" />
            </Array>
          </mxGeometry>
        </mxCell>
        <mxCell id="F0n1GK_Awo-oAIiUYu9Y-60" value="Đúng" style="edgeLabel;html=1;align=center;verticalAlign=middle;resizable=0;points=[];fontColor=#000000;labelBackgroundColor=none;labelBorderColor=#000000;" parent="-s264xQ-3EtqASesLYu1-10" vertex="1" connectable="0">
          <mxGeometry x="-0.4667" y="-1" relative="1" as="geometry">
            <mxPoint x="-13" y="-1" as="offset" />
          </mxGeometry>
        </mxCell>
        <mxCell id="F0n1GK_Awo-oAIiUYu9Y-155" value="Đúng" style="edgeLabel;html=1;align=center;verticalAlign=middle;resizable=0;points=[];fontColor=#000000;labelBackgroundColor=#FFFFFF;labelBorderColor=#000000;" parent="-s264xQ-3EtqASesLYu1-10" vertex="1" connectable="0">
          <mxGeometry x="-0.4667" y="-1" relative="1" as="geometry">
            <mxPoint x="-13" y="-1" as="offset" />
          </mxGeometry>
        </mxCell>
        <mxCell id="V-81XXpvDlPqea2ahmZ_-24" value="Chế độ input là &lt;br&gt;nút nhấn" style="rhombus;whiteSpace=wrap;html=1;labelBackgroundColor=none;strokeColor=#000000;strokeWidth=3;fontColor=#000000;fillColor=none;" parent="1" vertex="1">
          <mxGeometry x="3438.01" y="1453.5" width="124.87" height="123" as="geometry" />
        </mxCell>
        <mxCell id="-s264xQ-3EtqASesLYu1-6" value="A" style="ellipse;whiteSpace=wrap;html=1;aspect=fixed;labelBackgroundColor=none;strokeColor=#C73500;strokeWidth=3;fontColor=#000000;fillColor=#fa6800;" parent="1" vertex="1">
          <mxGeometry x="3303.01" y="1749" width="80" height="80" as="geometry" />
        </mxCell>
        <mxCell id="-s264xQ-3EtqASesLYu1-7" value="B" style="ellipse;whiteSpace=wrap;html=1;aspect=fixed;labelBackgroundColor=none;strokeColor=#C73500;strokeWidth=3;fontColor=#000000;fillColor=#fa6800;" parent="1" vertex="1">
          <mxGeometry x="3615.38" y="1749" width="80" height="80" as="geometry" />
        </mxCell>
        <mxCell id="UDB40sULyeH_-XUfqxy7-2" style="edgeStyle=none;html=1;exitX=0.5;exitY=1;exitDx=0;exitDy=0;entryX=0.5;entryY=0;entryDx=0;entryDy=0;strokeWidth=2;fontColor=#000000;strokeColor=#000000;" parent="1" source="UDB40sULyeH_-XUfqxy7-1" target="-s264xQ-3EtqASesLYu1-7" edge="1">
          <mxGeometry relative="1" as="geometry" />
        </mxCell>
        <mxCell id="UDB40sULyeH_-XUfqxy7-1" value="Chế độ đầu vào là nút nhấn" style="rounded=0;whiteSpace=wrap;html=1;labelBackgroundColor=none;strokeColor=#000000;strokeWidth=3;fontColor=#000000;fillColor=none;" parent="1" vertex="1">
          <mxGeometry x="3562.88" y="1630" width="185" height="80" as="geometry" />
        </mxCell>
        <mxCell id="UDB40sULyeH_-XUfqxy7-4" style="edgeStyle=none;html=1;exitX=0.5;exitY=1;exitDx=0;exitDy=0;entryX=0.5;entryY=0;entryDx=0;entryDy=0;strokeWidth=2;fontColor=#000000;strokeColor=#000000;" parent="1" source="UDB40sULyeH_-XUfqxy7-3" target="-s264xQ-3EtqASesLYu1-6" edge="1">
          <mxGeometry relative="1" as="geometry" />
        </mxCell>
        <mxCell id="UDB40sULyeH_-XUfqxy7-3" value="Chế độ đầu vào là UART" style="rounded=0;whiteSpace=wrap;html=1;labelBackgroundColor=none;strokeColor=#000000;strokeWidth=3;fontColor=#000000;fillColor=none;" parent="1" vertex="1">
          <mxGeometry x="3250.01" y="1630" width="185" height="80" as="geometry" />
        </mxCell>
        <mxCell id="F0n1GK_Awo-oAIiUYu9Y-1" style="edgeStyle=none;html=1;exitX=0.5;exitY=1;exitDx=0;exitDy=0;entryX=0.5;entryY=0;entryDx=0;entryDy=0;strokeWidth=2;fontColor=#FFFFFF;labelBackgroundColor=none;" parent="1" source="F0n1GK_Awo-oAIiUYu9Y-5" target="F0n1GK_Awo-oAIiUYu9Y-11" edge="1">
          <mxGeometry relative="1" as="geometry" />
        </mxCell>
        <mxCell id="F0n1GK_Awo-oAIiUYu9Y-2" value="Đúng" style="edgeLabel;html=1;align=center;verticalAlign=middle;resizable=0;points=[];fontColor=#FFFFFF;labelBackgroundColor=none;" parent="F0n1GK_Awo-oAIiUYu9Y-1" vertex="1" connectable="0">
          <mxGeometry x="-0.3" y="2" relative="1" as="geometry">
            <mxPoint as="offset" />
          </mxGeometry>
        </mxCell>
        <mxCell id="F0n1GK_Awo-oAIiUYu9Y-3" style="edgeStyle=none;html=1;exitX=0;exitY=0.5;exitDx=0;exitDy=0;strokeWidth=2;fontColor=#FFFFFF;labelBackgroundColor=none;" parent="1" source="F0n1GK_Awo-oAIiUYu9Y-5" edge="1">
          <mxGeometry relative="1" as="geometry">
            <mxPoint x="3773" y="2594" as="targetPoint" />
          </mxGeometry>
        </mxCell>
        <mxCell id="F0n1GK_Awo-oAIiUYu9Y-4" value="Sai" style="edgeLabel;html=1;align=center;verticalAlign=middle;resizable=0;points=[];fontColor=#FFFFFF;labelBackgroundColor=none;" parent="F0n1GK_Awo-oAIiUYu9Y-3" vertex="1" connectable="0">
          <mxGeometry x="-0.8817" y="3" relative="1" as="geometry">
            <mxPoint y="-3" as="offset" />
          </mxGeometry>
        </mxCell>
        <mxCell id="F0n1GK_Awo-oAIiUYu9Y-5" value="Nút nhấn được bấm" style="rhombus;whiteSpace=wrap;html=1;labelBackgroundColor=none;strokeColor=#000000;strokeWidth=3;fontColor=#000000;fillColor=none;" parent="1" vertex="1">
          <mxGeometry x="4391.57" y="2535" width="130.37" height="119" as="geometry" />
        </mxCell>
        <mxCell id="F0n1GK_Awo-oAIiUYu9Y-6" style="edgeStyle=none;html=1;exitX=0.5;exitY=1;exitDx=0;exitDy=0;entryX=0.5;entryY=0;entryDx=0;entryDy=0;strokeWidth=2;fontColor=#FFFFFF;labelBackgroundColor=none;" parent="1" source="F0n1GK_Awo-oAIiUYu9Y-50" target="F0n1GK_Awo-oAIiUYu9Y-36" edge="1">
          <mxGeometry relative="1" as="geometry">
            <mxPoint x="4456.13" y="2389" as="sourcePoint" />
          </mxGeometry>
        </mxCell>
        <mxCell id="F0n1GK_Awo-oAIiUYu9Y-7" value="" style="edgeStyle=none;html=1;strokeWidth=2;fontColor=#FFFFFF;labelBackgroundColor=none;" parent="1" source="F0n1GK_Awo-oAIiUYu9Y-11" target="F0n1GK_Awo-oAIiUYu9Y-16" edge="1">
          <mxGeometry relative="1" as="geometry" />
        </mxCell>
        <mxCell id="F0n1GK_Awo-oAIiUYu9Y-8" value="Sai" style="edgeLabel;html=1;align=center;verticalAlign=middle;resizable=0;points=[];fontColor=#FFFFFF;labelBackgroundColor=none;" parent="F0n1GK_Awo-oAIiUYu9Y-7" vertex="1" connectable="0">
          <mxGeometry x="-0.2867" y="1" relative="1" as="geometry">
            <mxPoint as="offset" />
          </mxGeometry>
        </mxCell>
        <mxCell id="F0n1GK_Awo-oAIiUYu9Y-9" value="" style="edgeStyle=none;html=1;strokeWidth=2;fontColor=#FFFFFF;labelBackgroundColor=none;" parent="1" source="F0n1GK_Awo-oAIiUYu9Y-11" target="F0n1GK_Awo-oAIiUYu9Y-29" edge="1">
          <mxGeometry relative="1" as="geometry" />
        </mxCell>
        <mxCell id="F0n1GK_Awo-oAIiUYu9Y-10" value="Đúng" style="edgeLabel;html=1;align=center;verticalAlign=middle;resizable=0;points=[];fontColor=#FFFFFF;labelBackgroundColor=none;" parent="F0n1GK_Awo-oAIiUYu9Y-9" vertex="1" connectable="0">
          <mxGeometry x="-0.1942" y="2" relative="1" as="geometry">
            <mxPoint x="1" y="-2" as="offset" />
          </mxGeometry>
        </mxCell>
        <mxCell id="F0n1GK_Awo-oAIiUYu9Y-11" value="Nút tạo mã" style="rhombus;whiteSpace=wrap;html=1;labelBackgroundColor=none;strokeColor=#000000;strokeWidth=3;fontColor=#000000;fillColor=none;" parent="1" vertex="1">
          <mxGeometry x="4394.389999999999" y="2704" width="123.43" height="119" as="geometry" />
        </mxCell>
        <mxCell id="F0n1GK_Awo-oAIiUYu9Y-12" value="" style="edgeStyle=none;html=1;strokeWidth=2;fontColor=#FFFFFF;labelBackgroundColor=none;strokeColor=#000000;" parent="1" source="F0n1GK_Awo-oAIiUYu9Y-16" target="F0n1GK_Awo-oAIiUYu9Y-21" edge="1">
          <mxGeometry relative="1" as="geometry" />
        </mxCell>
        <mxCell id="F0n1GK_Awo-oAIiUYu9Y-13" value="Sai" style="edgeLabel;html=1;align=center;verticalAlign=middle;resizable=0;points=[];fontColor=#000000;labelBackgroundColor=none;labelBorderColor=#000000;" parent="F0n1GK_Awo-oAIiUYu9Y-12" vertex="1" connectable="0">
          <mxGeometry x="-0.3533" y="-2" relative="1" as="geometry">
            <mxPoint as="offset" />
          </mxGeometry>
        </mxCell>
        <mxCell id="F0n1GK_Awo-oAIiUYu9Y-169" value="Sai" style="edgeLabel;html=1;align=center;verticalAlign=middle;resizable=0;points=[];fontColor=#000000;labelBackgroundColor=#FFFFFF;labelBorderColor=#000000;" parent="F0n1GK_Awo-oAIiUYu9Y-12" vertex="1" connectable="0">
          <mxGeometry x="-0.3533" y="-2" relative="1" as="geometry">
            <mxPoint as="offset" />
          </mxGeometry>
        </mxCell>
        <mxCell id="F0n1GK_Awo-oAIiUYu9Y-14" value="" style="edgeStyle=none;html=1;strokeWidth=2;fontColor=#FFFFFF;labelBackgroundColor=none;strokeColor=#000000;" parent="1" source="F0n1GK_Awo-oAIiUYu9Y-16" target="F0n1GK_Awo-oAIiUYu9Y-41" edge="1">
          <mxGeometry relative="1" as="geometry" />
        </mxCell>
        <mxCell id="F0n1GK_Awo-oAIiUYu9Y-15" value="Đúng" style="edgeLabel;html=1;align=center;verticalAlign=middle;resizable=0;points=[];fontColor=#000000;labelBackgroundColor=none;labelBorderColor=#000000;" parent="F0n1GK_Awo-oAIiUYu9Y-14" vertex="1" connectable="0">
          <mxGeometry x="-0.1586" relative="1" as="geometry">
            <mxPoint as="offset" />
          </mxGeometry>
        </mxCell>
        <mxCell id="F0n1GK_Awo-oAIiUYu9Y-168" value="Đúng" style="edgeLabel;html=1;align=center;verticalAlign=middle;resizable=0;points=[];fontColor=#000000;labelBackgroundColor=#FFFFFF;labelBorderColor=#000000;" parent="F0n1GK_Awo-oAIiUYu9Y-14" vertex="1" connectable="0">
          <mxGeometry x="-0.1586" relative="1" as="geometry">
            <mxPoint as="offset" />
          </mxGeometry>
        </mxCell>
        <mxCell id="F0n1GK_Awo-oAIiUYu9Y-16" value="Nút tạo xác nhận &lt;br&gt;kí tự" style="rhombus;whiteSpace=wrap;html=1;labelBackgroundColor=none;strokeColor=#000000;strokeWidth=3;fontColor=#000000;fillColor=none;" parent="1" vertex="1">
          <mxGeometry x="4390.13" y="3018" width="126" height="121" as="geometry" />
        </mxCell>
        <mxCell id="F0n1GK_Awo-oAIiUYu9Y-17" value="" style="edgeStyle=none;html=1;strokeWidth=2;fontColor=#FFFFFF;labelBackgroundColor=none;strokeColor=#000000;" parent="1" source="F0n1GK_Awo-oAIiUYu9Y-21" target="F0n1GK_Awo-oAIiUYu9Y-24" edge="1">
          <mxGeometry relative="1" as="geometry" />
        </mxCell>
        <mxCell id="F0n1GK_Awo-oAIiUYu9Y-18" value="Sai" style="edgeLabel;html=1;align=center;verticalAlign=middle;resizable=0;points=[];fontColor=#000000;labelBackgroundColor=#FFFFFF;labelBorderColor=#000000;" parent="F0n1GK_Awo-oAIiUYu9Y-17" vertex="1" connectable="0">
          <mxGeometry x="-0.2845" y="1" relative="1" as="geometry">
            <mxPoint as="offset" />
          </mxGeometry>
        </mxCell>
        <mxCell id="F0n1GK_Awo-oAIiUYu9Y-19" value="" style="edgeStyle=none;html=1;strokeWidth=2;fontColor=#FFFFFF;labelBackgroundColor=none;strokeColor=#000000;" parent="1" source="F0n1GK_Awo-oAIiUYu9Y-21" target="F0n1GK_Awo-oAIiUYu9Y-47" edge="1">
          <mxGeometry relative="1" as="geometry" />
        </mxCell>
        <mxCell id="F0n1GK_Awo-oAIiUYu9Y-20" value="Đúng" style="edgeLabel;html=1;align=center;verticalAlign=middle;resizable=0;points=[];fontColor=#000000;labelBackgroundColor=none;labelBorderColor=#000000;" parent="F0n1GK_Awo-oAIiUYu9Y-19" vertex="1" connectable="0">
          <mxGeometry x="-0.2491" relative="1" as="geometry">
            <mxPoint x="-4" as="offset" />
          </mxGeometry>
        </mxCell>
        <mxCell id="F0n1GK_Awo-oAIiUYu9Y-171" value="Đúng" style="edgeLabel;html=1;align=center;verticalAlign=middle;resizable=0;points=[];fontColor=#000000;labelBackgroundColor=#FFFFFF;labelBorderColor=#000000;" parent="F0n1GK_Awo-oAIiUYu9Y-19" vertex="1" connectable="0">
          <mxGeometry x="-0.2491" relative="1" as="geometry">
            <mxPoint x="-4" as="offset" />
          </mxGeometry>
        </mxCell>
        <mxCell id="F0n1GK_Awo-oAIiUYu9Y-21" value="Nút phát xâu &lt;br&gt;kí tự đã nhập &lt;br&gt;bằng buzzer" style="rhombus;whiteSpace=wrap;html=1;labelBackgroundColor=none;strokeColor=#000000;strokeWidth=3;fontColor=#000000;fillColor=none;" parent="1" vertex="1">
          <mxGeometry x="4389" y="3298" width="126.88" height="119" as="geometry" />
        </mxCell>
        <mxCell id="F0n1GK_Awo-oAIiUYu9Y-22" style="edgeStyle=none;html=1;exitX=0;exitY=0.5;exitDx=0;exitDy=0;entryX=1;entryY=0.5;entryDx=0;entryDy=0;strokeWidth=2;fontColor=#FFFFFF;strokeColor=#000000;" parent="1" source="F0n1GK_Awo-oAIiUYu9Y-24" target="F0n1GK_Awo-oAIiUYu9Y-49" edge="1">
          <mxGeometry relative="1" as="geometry" />
        </mxCell>
        <mxCell id="F0n1GK_Awo-oAIiUYu9Y-23" value="Đúng" style="edgeLabel;html=1;align=center;verticalAlign=middle;resizable=0;points=[];fontColor=#000000;labelBackgroundColor=#FFFFFF;labelBorderColor=#000000;" parent="F0n1GK_Awo-oAIiUYu9Y-22" vertex="1" connectable="0">
          <mxGeometry x="-0.2872" y="1" relative="1" as="geometry">
            <mxPoint x="-6" y="-1" as="offset" />
          </mxGeometry>
        </mxCell>
        <mxCell id="F0n1GK_Awo-oAIiUYu9Y-24" value="Nút phát xâu &lt;br&gt;kí tự đã nhập&lt;br&gt;&amp;nbsp;bằng LED" style="rhombus;whiteSpace=wrap;html=1;labelBackgroundColor=none;strokeColor=#000000;strokeWidth=3;fontColor=#000000;fillColor=none;" parent="1" vertex="1">
          <mxGeometry x="4394.89" y="3487" width="120.11" height="112" as="geometry" />
        </mxCell>
        <mxCell id="F0n1GK_Awo-oAIiUYu9Y-25" value="" style="edgeStyle=none;html=1;strokeWidth=2;fontColor=#FFFFFF;labelBackgroundColor=none;" parent="1" source="F0n1GK_Awo-oAIiUYu9Y-29" target="F0n1GK_Awo-oAIiUYu9Y-31" edge="1">
          <mxGeometry relative="1" as="geometry" />
        </mxCell>
        <mxCell id="F0n1GK_Awo-oAIiUYu9Y-26" value="Đúng" style="edgeLabel;html=1;align=center;verticalAlign=middle;resizable=0;points=[];fontColor=#FFFFFF;labelBackgroundColor=none;" parent="F0n1GK_Awo-oAIiUYu9Y-25" vertex="1" connectable="0">
          <mxGeometry x="0.21" y="1" relative="1" as="geometry">
            <mxPoint x="15" y="-1" as="offset" />
          </mxGeometry>
        </mxCell>
        <mxCell id="F0n1GK_Awo-oAIiUYu9Y-27" value="" style="edgeStyle=none;html=1;strokeWidth=2;fontColor=#FFFFFF;labelBackgroundColor=none;" parent="1" source="F0n1GK_Awo-oAIiUYu9Y-29" target="F0n1GK_Awo-oAIiUYu9Y-32" edge="1">
          <mxGeometry relative="1" as="geometry" />
        </mxCell>
        <mxCell id="F0n1GK_Awo-oAIiUYu9Y-28" value="Sai" style="edgeLabel;html=1;align=center;verticalAlign=middle;resizable=0;points=[];fontColor=#FFFFFF;labelBackgroundColor=none;" parent="F0n1GK_Awo-oAIiUYu9Y-27" vertex="1" connectable="0">
          <mxGeometry x="-0.464" relative="1" as="geometry">
            <mxPoint y="6" as="offset" />
          </mxGeometry>
        </mxCell>
        <mxCell id="F0n1GK_Awo-oAIiUYu9Y-29" value="Nút được nhấn &lt;br&gt;trên 600 ms" style="rhombus;whiteSpace=wrap;html=1;labelBackgroundColor=none;strokeColor=#000000;strokeWidth=3;fontColor=#000000;fillColor=none;" parent="1" vertex="1">
          <mxGeometry x="4147.76" y="2700" width="124.87" height="123" as="geometry" />
        </mxCell>
        <mxCell id="F0n1GK_Awo-oAIiUYu9Y-30" style="edgeStyle=none;html=1;exitX=0;exitY=0.5;exitDx=0;exitDy=0;strokeWidth=2;fontColor=#FFFFFF;labelBackgroundColor=none;" parent="1" source="F0n1GK_Awo-oAIiUYu9Y-31" edge="1">
          <mxGeometry relative="1" as="geometry">
            <mxPoint x="3773" y="2763" as="targetPoint" />
          </mxGeometry>
        </mxCell>
        <mxCell id="F0n1GK_Awo-oAIiUYu9Y-31" value="Thêm mã - vào buffer" style="whiteSpace=wrap;html=1;fillColor=none;strokeColor=#000000;fontColor=#000000;labelBackgroundColor=none;strokeWidth=3;" parent="1" vertex="1">
          <mxGeometry x="3885" y="2733" width="125.01" height="60" as="geometry" />
        </mxCell>
        <mxCell id="F0n1GK_Awo-oAIiUYu9Y-32" value="Thêm mã . vào buffer" style="whiteSpace=wrap;html=1;fillColor=none;strokeColor=#000000;fontColor=#000000;labelBackgroundColor=none;strokeWidth=3;" parent="1" vertex="1">
          <mxGeometry x="4150.195" y="2871" width="120" height="60" as="geometry" />
        </mxCell>
        <mxCell id="F0n1GK_Awo-oAIiUYu9Y-33" value="" style="endArrow=classic;html=1;strokeWidth=2;fontColor=#FFFFFF;" parent="1" target="F0n1GK_Awo-oAIiUYu9Y-51" edge="1">
          <mxGeometry width="50" height="50" relative="1" as="geometry">
            <mxPoint x="3773" y="3543" as="sourcePoint" />
            <mxPoint x="3773" y="2465" as="targetPoint" />
            <Array as="points">
              <mxPoint x="3773" y="3169" />
              <mxPoint x="3773" y="3019" />
              <mxPoint x="3773" y="2517" />
            </Array>
          </mxGeometry>
        </mxCell>
        <mxCell id="F0n1GK_Awo-oAIiUYu9Y-34" value="" style="endArrow=classic;html=1;strokeWidth=2;fontColor=#FFFFFF;exitX=0.5;exitY=1;exitDx=0;exitDy=0;labelBackgroundColor=none;" parent="1" source="F0n1GK_Awo-oAIiUYu9Y-32" edge="1">
          <mxGeometry width="50" height="50" relative="1" as="geometry">
            <mxPoint x="4063" y="2979" as="sourcePoint" />
            <mxPoint x="3773" y="2969" as="targetPoint" />
            <Array as="points">
              <mxPoint x="4210" y="2969" />
            </Array>
          </mxGeometry>
        </mxCell>
        <mxCell id="F0n1GK_Awo-oAIiUYu9Y-35" style="edgeStyle=none;html=1;exitX=0.5;exitY=1;exitDx=0;exitDy=0;entryX=0.5;entryY=0;entryDx=0;entryDy=0;strokeWidth=2;fontColor=#FFFFFF;labelBackgroundColor=none;" parent="1" source="F0n1GK_Awo-oAIiUYu9Y-36" target="F0n1GK_Awo-oAIiUYu9Y-5" edge="1">
          <mxGeometry relative="1" as="geometry" />
        </mxCell>
        <mxCell id="F0n1GK_Awo-oAIiUYu9Y-36" value="Quét nút nhấn" style="rounded=1;whiteSpace=wrap;html=1;labelBackgroundColor=none;strokeColor=#000000;strokeWidth=3;fontColor=#000000;fillColor=none;" parent="1" vertex="1">
          <mxGeometry x="4396.13" y="2437" width="120" height="60" as="geometry" />
        </mxCell>
        <mxCell id="F0n1GK_Awo-oAIiUYu9Y-37" value="" style="edgeStyle=none;html=1;strokeWidth=2;fontColor=#FFFFFF;labelBackgroundColor=none;strokeColor=#000000;" parent="1" source="F0n1GK_Awo-oAIiUYu9Y-41" target="F0n1GK_Awo-oAIiUYu9Y-43" edge="1">
          <mxGeometry relative="1" as="geometry" />
        </mxCell>
        <mxCell id="F0n1GK_Awo-oAIiUYu9Y-38" value="Đúng" style="edgeLabel;html=1;align=center;verticalAlign=middle;resizable=0;points=[];fontColor=#000000;labelBackgroundColor=none;labelBorderColor=#000000;" parent="F0n1GK_Awo-oAIiUYu9Y-37" vertex="1" connectable="0">
          <mxGeometry x="0.1634" relative="1" as="geometry">
            <mxPoint x="14" as="offset" />
          </mxGeometry>
        </mxCell>
        <mxCell id="F0n1GK_Awo-oAIiUYu9Y-167" value="Đúng" style="edgeLabel;html=1;align=center;verticalAlign=middle;resizable=0;points=[];fontColor=#000000;labelBackgroundColor=#FFFFFF;labelBorderColor=#000000;" parent="F0n1GK_Awo-oAIiUYu9Y-37" vertex="1" connectable="0">
          <mxGeometry x="0.1634" relative="1" as="geometry">
            <mxPoint x="14" as="offset" />
          </mxGeometry>
        </mxCell>
        <mxCell id="F0n1GK_Awo-oAIiUYu9Y-39" value="" style="edgeStyle=none;html=1;strokeWidth=2;fontColor=#FFFFFF;labelBackgroundColor=none;strokeColor=#000000;" parent="1" source="F0n1GK_Awo-oAIiUYu9Y-41" target="F0n1GK_Awo-oAIiUYu9Y-45" edge="1">
          <mxGeometry relative="1" as="geometry" />
        </mxCell>
        <mxCell id="F0n1GK_Awo-oAIiUYu9Y-40" value="Sai" style="edgeLabel;html=1;align=center;verticalAlign=middle;resizable=0;points=[];fontColor=#000000;labelBackgroundColor=none;labelBorderColor=#000000;" parent="F0n1GK_Awo-oAIiUYu9Y-39" vertex="1" connectable="0">
          <mxGeometry x="-0.3744" relative="1" as="geometry">
            <mxPoint as="offset" />
          </mxGeometry>
        </mxCell>
        <mxCell id="F0n1GK_Awo-oAIiUYu9Y-170" value="Sai" style="edgeLabel;html=1;align=center;verticalAlign=middle;resizable=0;points=[];fontColor=#000000;labelBackgroundColor=#FFFFFF;labelBorderColor=#000000;" parent="F0n1GK_Awo-oAIiUYu9Y-39" vertex="1" connectable="0">
          <mxGeometry x="-0.3744" relative="1" as="geometry">
            <mxPoint as="offset" />
          </mxGeometry>
        </mxCell>
        <mxCell id="F0n1GK_Awo-oAIiUYu9Y-41" value="Mã buffer tồn tại trong &lt;br&gt;bảng mã morse" style="rhombus;whiteSpace=wrap;html=1;labelBackgroundColor=none;strokeColor=#000000;strokeWidth=3;fontColor=#000000;fillColor=none;" parent="1" vertex="1">
          <mxGeometry x="4101.99" y="3010" width="147" height="137" as="geometry" />
        </mxCell>
        <mxCell id="x10_I7qw07U-FDOcfDz4-1" style="edgeStyle=orthogonalEdgeStyle;rounded=0;orthogonalLoop=1;jettySize=auto;html=1;exitX=0;exitY=0.5;exitDx=0;exitDy=0;strokeWidth=2;" edge="1" parent="1" source="F0n1GK_Awo-oAIiUYu9Y-43">
          <mxGeometry relative="1" as="geometry">
            <mxPoint x="3773.4814814814818" y="3078.4938271604938" as="targetPoint" />
            <Array as="points">
              <mxPoint x="3828" y="3078" />
              <mxPoint x="3828" y="3078" />
            </Array>
          </mxGeometry>
        </mxCell>
        <mxCell id="F0n1GK_Awo-oAIiUYu9Y-43" value="Thêm kí tự tương ứng vào xâu kí tự" style="whiteSpace=wrap;html=1;fillColor=none;strokeColor=#000000;fontColor=#000000;labelBackgroundColor=none;strokeWidth=3;" parent="1" vertex="1">
          <mxGeometry x="3887.505" y="3048.5" width="120" height="60" as="geometry" />
        </mxCell>
        <mxCell id="F0n1GK_Awo-oAIiUYu9Y-44" style="edgeStyle=none;html=1;exitX=0;exitY=0.5;exitDx=0;exitDy=0;strokeWidth=2;fontColor=#FFFFFF;labelBackgroundColor=none;strokeColor=#000000;" parent="1" source="F0n1GK_Awo-oAIiUYu9Y-45" edge="1">
          <mxGeometry relative="1" as="geometry">
            <mxPoint x="3773" y="3218" as="targetPoint" />
          </mxGeometry>
        </mxCell>
        <mxCell id="F0n1GK_Awo-oAIiUYu9Y-45" value="Thêm kí tự ? vào &lt;br&gt;xâu kí tự" style="whiteSpace=wrap;html=1;fillColor=none;strokeColor=#000000;fontColor=#000000;labelBackgroundColor=none;strokeWidth=3;" parent="1" vertex="1">
          <mxGeometry x="4115.495" y="3188" width="120" height="60" as="geometry" />
        </mxCell>
        <mxCell id="F0n1GK_Awo-oAIiUYu9Y-46" style="edgeStyle=none;html=1;exitX=0;exitY=0.5;exitDx=0;exitDy=0;strokeWidth=2;fontColor=#FFFFFF;labelBackgroundColor=none;strokeColor=#000000;" parent="1" source="F0n1GK_Awo-oAIiUYu9Y-47" edge="1">
          <mxGeometry relative="1" as="geometry">
            <mxPoint x="3773" y="3360.9999999999995" as="targetPoint" />
          </mxGeometry>
        </mxCell>
        <mxCell id="F0n1GK_Awo-oAIiUYu9Y-47" value="Phát mã Morse của xâu kí tự&lt;br&gt;bằng buzzer" style="whiteSpace=wrap;html=1;fillColor=none;strokeColor=#000000;fontColor=#000000;labelBackgroundColor=none;strokeWidth=3;" parent="1" vertex="1">
          <mxGeometry x="4095" y="3331" width="163.63" height="60" as="geometry" />
        </mxCell>
        <mxCell id="F0n1GK_Awo-oAIiUYu9Y-48" style="edgeStyle=none;html=1;exitX=0;exitY=0.5;exitDx=0;exitDy=0;strokeWidth=2;fontColor=#FFFFFF;strokeColor=#000000;" parent="1" source="F0n1GK_Awo-oAIiUYu9Y-49" edge="1">
          <mxGeometry relative="1" as="geometry">
            <mxPoint x="3773" y="3543" as="targetPoint" />
          </mxGeometry>
        </mxCell>
        <mxCell id="F0n1GK_Awo-oAIiUYu9Y-49" value="Phát mã Morse của xâu kí tự&lt;br&gt;bằng LED" style="whiteSpace=wrap;html=1;fillColor=none;strokeColor=#000000;fontColor=#000000;labelBackgroundColor=none;strokeWidth=3;" parent="1" vertex="1">
          <mxGeometry x="4093.68" y="3513" width="163.63" height="60" as="geometry" />
        </mxCell>
        <mxCell id="F0n1GK_Awo-oAIiUYu9Y-50" value="B" style="ellipse;whiteSpace=wrap;html=1;aspect=fixed;labelBackgroundColor=none;strokeColor=#000000;strokeWidth=3;fontColor=#FFFFFF;fillColor=none;" parent="1" vertex="1">
          <mxGeometry x="4416.110000000001" y="2300" width="80" height="80" as="geometry" />
        </mxCell>
        <mxCell id="F0n1GK_Awo-oAIiUYu9Y-51" value="C" style="ellipse;whiteSpace=wrap;html=1;aspect=fixed;labelBackgroundColor=none;strokeColor=#000000;strokeWidth=3;fontColor=#FFFFFF;fillColor=none;" parent="1" vertex="1">
          <mxGeometry x="3731" y="2300" width="80" height="80" as="geometry" />
        </mxCell>
        <mxCell id="F0n1GK_Awo-oAIiUYu9Y-98" value="" style="edgeStyle=none;rounded=1;html=1;labelBackgroundColor=none;strokeColor=#000000;strokeWidth=2;fontColor=#000000;" parent="1" source="F0n1GK_Awo-oAIiUYu9Y-52" target="F0n1GK_Awo-oAIiUYu9Y-96" edge="1">
          <mxGeometry relative="1" as="geometry" />
        </mxCell>
        <mxCell id="F0n1GK_Awo-oAIiUYu9Y-52" value="A" style="ellipse;whiteSpace=wrap;html=1;aspect=fixed;labelBackgroundColor=none;strokeColor=#C73500;strokeWidth=3;fontColor=#000000;fillColor=#fa6800;" parent="1" vertex="1">
          <mxGeometry x="2348" y="2227" width="80" height="80" as="geometry" />
        </mxCell>
        <mxCell id="F0n1GK_Awo-oAIiUYu9Y-62" value="" style="endArrow=classic;html=1;strokeWidth=2;fontColor=#FFFFFF;strokeColor=#000000;" parent="1" edge="1">
          <mxGeometry width="50" height="50" relative="1" as="geometry">
            <mxPoint x="3773" y="3543" as="sourcePoint" />
            <mxPoint x="3771.3883312132525" y="2379.9981149650243" as="targetPoint" />
            <Array as="points">
              <mxPoint x="3773" y="3169" />
              <mxPoint x="3773" y="3019" />
              <mxPoint x="3773" y="2517" />
            </Array>
          </mxGeometry>
        </mxCell>
        <mxCell id="F0n1GK_Awo-oAIiUYu9Y-63" style="edgeStyle=none;html=1;exitX=0;exitY=0.5;exitDx=0;exitDy=0;strokeWidth=2;fontColor=#FFFFFF;labelBackgroundColor=none;strokeColor=#000000;" parent="1" edge="1">
          <mxGeometry relative="1" as="geometry">
            <mxPoint x="3773" y="2594" as="targetPoint" />
            <mxPoint x="4391.57" y="2594.5" as="sourcePoint" />
          </mxGeometry>
        </mxCell>
        <mxCell id="F0n1GK_Awo-oAIiUYu9Y-64" value="Sai" style="edgeLabel;html=1;align=center;verticalAlign=middle;resizable=0;points=[];fontColor=#FFFFFF;labelBackgroundColor=none;" parent="F0n1GK_Awo-oAIiUYu9Y-63" vertex="1" connectable="0">
          <mxGeometry x="-0.8817" y="3" relative="1" as="geometry">
            <mxPoint y="-3" as="offset" />
          </mxGeometry>
        </mxCell>
        <mxCell id="F0n1GK_Awo-oAIiUYu9Y-65" value="" style="endArrow=classic;html=1;strokeWidth=2;fontColor=#FFFFFF;exitX=0.5;exitY=1;exitDx=0;exitDy=0;labelBackgroundColor=none;strokeColor=#000000;" parent="1" edge="1">
          <mxGeometry width="50" height="50" relative="1" as="geometry">
            <mxPoint x="4210.195" y="2931" as="sourcePoint" />
            <mxPoint x="3773" y="2969" as="targetPoint" />
            <Array as="points">
              <mxPoint x="4210" y="2969" />
            </Array>
          </mxGeometry>
        </mxCell>
        <mxCell id="F0n1GK_Awo-oAIiUYu9Y-66" style="edgeStyle=none;html=1;exitX=0.5;exitY=1;exitDx=0;exitDy=0;entryX=0.5;entryY=0;entryDx=0;entryDy=0;strokeWidth=2;fontColor=#FFFFFF;labelBackgroundColor=none;strokeColor=#000000;" parent="1" edge="1">
          <mxGeometry relative="1" as="geometry">
            <mxPoint x="4456.110000000001" y="2380" as="sourcePoint" />
            <mxPoint x="4456.13" y="2437" as="targetPoint" />
          </mxGeometry>
        </mxCell>
        <mxCell id="F0n1GK_Awo-oAIiUYu9Y-67" style="edgeStyle=none;html=1;exitX=0.5;exitY=1;exitDx=0;exitDy=0;entryX=0.5;entryY=0;entryDx=0;entryDy=0;strokeWidth=2;fontColor=#FFFFFF;labelBackgroundColor=none;strokeColor=#000000;" parent="1" edge="1">
          <mxGeometry relative="1" as="geometry">
            <mxPoint x="4456.13" y="2497" as="sourcePoint" />
            <mxPoint x="4456.755" y="2535" as="targetPoint" />
          </mxGeometry>
        </mxCell>
        <mxCell id="F0n1GK_Awo-oAIiUYu9Y-68" style="edgeStyle=none;html=1;exitX=0.5;exitY=1;exitDx=0;exitDy=0;entryX=0.5;entryY=0;entryDx=0;entryDy=0;strokeWidth=2;fontColor=#FFFFFF;labelBackgroundColor=none;strokeColor=#000000;" parent="1" edge="1">
          <mxGeometry relative="1" as="geometry">
            <mxPoint x="4456.755" y="2654" as="sourcePoint" />
            <mxPoint x="4456.105" y="2704" as="targetPoint" />
          </mxGeometry>
        </mxCell>
        <mxCell id="F0n1GK_Awo-oAIiUYu9Y-69" value="Đúng" style="edgeLabel;html=1;align=center;verticalAlign=middle;resizable=0;points=[];fontColor=#FFFFFF;labelBackgroundColor=none;" parent="F0n1GK_Awo-oAIiUYu9Y-68" vertex="1" connectable="0">
          <mxGeometry x="-0.3" y="2" relative="1" as="geometry">
            <mxPoint as="offset" />
          </mxGeometry>
        </mxCell>
        <mxCell id="F0n1GK_Awo-oAIiUYu9Y-70" value="" style="endArrow=classic;html=1;strokeWidth=2;fontColor=#FFFFFF;strokeColor=#000000;" parent="1" edge="1">
          <mxGeometry width="50" height="50" relative="1" as="geometry">
            <mxPoint x="3773" y="3543" as="sourcePoint" />
            <mxPoint x="3771.3883312132525" y="2379.9981149650243" as="targetPoint" />
            <Array as="points">
              <mxPoint x="3773" y="3169" />
              <mxPoint x="3773" y="3019" />
              <mxPoint x="3773" y="2517" />
            </Array>
          </mxGeometry>
        </mxCell>
        <mxCell id="F0n1GK_Awo-oAIiUYu9Y-71" style="edgeStyle=none;html=1;exitX=0;exitY=0.5;exitDx=0;exitDy=0;strokeWidth=2;fontColor=#FFFFFF;labelBackgroundColor=none;strokeColor=#000000;" parent="1" edge="1">
          <mxGeometry relative="1" as="geometry">
            <mxPoint x="3773" y="2594" as="targetPoint" />
            <mxPoint x="4391.57" y="2594.5" as="sourcePoint" />
          </mxGeometry>
        </mxCell>
        <mxCell id="F0n1GK_Awo-oAIiUYu9Y-72" value="Sai" style="edgeLabel;html=1;align=center;verticalAlign=middle;resizable=0;points=[];fontColor=#000000;labelBackgroundColor=none;labelBorderColor=#000000;" parent="F0n1GK_Awo-oAIiUYu9Y-71" vertex="1" connectable="0">
          <mxGeometry x="-0.8817" y="3" relative="1" as="geometry">
            <mxPoint y="-3" as="offset" />
          </mxGeometry>
        </mxCell>
        <mxCell id="F0n1GK_Awo-oAIiUYu9Y-161" value="Sai" style="edgeLabel;html=1;align=center;verticalAlign=middle;resizable=0;points=[];fontColor=#000000;labelBackgroundColor=#FFFFFF;labelBorderColor=#000000;" parent="F0n1GK_Awo-oAIiUYu9Y-71" vertex="1" connectable="0">
          <mxGeometry x="-0.8817" y="3" relative="1" as="geometry">
            <mxPoint y="-3" as="offset" />
          </mxGeometry>
        </mxCell>
        <mxCell id="F0n1GK_Awo-oAIiUYu9Y-73" value="" style="endArrow=classic;html=1;strokeWidth=2;fontColor=#FFFFFF;exitX=0.5;exitY=1;exitDx=0;exitDy=0;labelBackgroundColor=none;strokeColor=#000000;" parent="1" edge="1">
          <mxGeometry width="50" height="50" relative="1" as="geometry">
            <mxPoint x="4210.195" y="2931" as="sourcePoint" />
            <mxPoint x="3773" y="2969" as="targetPoint" />
            <Array as="points">
              <mxPoint x="4210" y="2969" />
            </Array>
          </mxGeometry>
        </mxCell>
        <mxCell id="F0n1GK_Awo-oAIiUYu9Y-74" style="edgeStyle=none;html=1;exitX=0.5;exitY=1;exitDx=0;exitDy=0;entryX=0.5;entryY=0;entryDx=0;entryDy=0;strokeWidth=2;fontColor=#FFFFFF;labelBackgroundColor=none;strokeColor=#000000;" parent="1" edge="1">
          <mxGeometry relative="1" as="geometry">
            <mxPoint x="4456.110000000001" y="2380" as="sourcePoint" />
            <mxPoint x="4456.13" y="2437" as="targetPoint" />
          </mxGeometry>
        </mxCell>
        <mxCell id="F0n1GK_Awo-oAIiUYu9Y-75" style="edgeStyle=none;html=1;exitX=0.5;exitY=1;exitDx=0;exitDy=0;entryX=0.5;entryY=0;entryDx=0;entryDy=0;strokeWidth=2;fontColor=#FFFFFF;labelBackgroundColor=none;strokeColor=#000000;" parent="1" edge="1">
          <mxGeometry relative="1" as="geometry">
            <mxPoint x="4456.13" y="2497" as="sourcePoint" />
            <mxPoint x="4456.755" y="2535" as="targetPoint" />
          </mxGeometry>
        </mxCell>
        <mxCell id="F0n1GK_Awo-oAIiUYu9Y-76" style="edgeStyle=none;html=1;exitX=0.5;exitY=1;exitDx=0;exitDy=0;entryX=0.5;entryY=0;entryDx=0;entryDy=0;strokeWidth=2;fontColor=#FFFFFF;labelBackgroundColor=none;strokeColor=#000000;" parent="1" edge="1">
          <mxGeometry relative="1" as="geometry">
            <mxPoint x="4456.755" y="2654" as="sourcePoint" />
            <mxPoint x="4456.105" y="2704" as="targetPoint" />
          </mxGeometry>
        </mxCell>
        <mxCell id="F0n1GK_Awo-oAIiUYu9Y-77" value="Đúng" style="edgeLabel;html=1;align=center;verticalAlign=middle;resizable=0;points=[];fontColor=#000000;labelBackgroundColor=none;labelBorderColor=#000000;" parent="F0n1GK_Awo-oAIiUYu9Y-76" vertex="1" connectable="0">
          <mxGeometry x="-0.3" y="2" relative="1" as="geometry">
            <mxPoint as="offset" />
          </mxGeometry>
        </mxCell>
        <mxCell id="F0n1GK_Awo-oAIiUYu9Y-162" value="Đúng" style="edgeLabel;html=1;align=center;verticalAlign=middle;resizable=0;points=[];fontColor=#000000;labelBackgroundColor=#FFFFFF;labelBorderColor=#000000;" parent="F0n1GK_Awo-oAIiUYu9Y-76" vertex="1" connectable="0">
          <mxGeometry x="-0.3" y="2" relative="1" as="geometry">
            <mxPoint as="offset" />
          </mxGeometry>
        </mxCell>
        <mxCell id="F0n1GK_Awo-oAIiUYu9Y-78" style="edgeStyle=none;html=1;exitX=0;exitY=0.5;exitDx=0;exitDy=0;strokeWidth=2;fontColor=#FFFFFF;labelBackgroundColor=none;strokeColor=#000000;" parent="1" edge="1">
          <mxGeometry relative="1" as="geometry">
            <mxPoint x="3773" y="2763" as="targetPoint" />
            <mxPoint x="3885" y="2763" as="sourcePoint" />
          </mxGeometry>
        </mxCell>
        <mxCell id="F0n1GK_Awo-oAIiUYu9Y-79" value="" style="edgeStyle=none;html=1;strokeWidth=2;fontColor=#FFFFFF;labelBackgroundColor=none;strokeColor=#000000;" parent="1" edge="1">
          <mxGeometry relative="1" as="geometry">
            <mxPoint x="4148.1198475199" y="2761.854458596521" as="sourcePoint" />
            <mxPoint x="4010.01" y="2762.6430869085234" as="targetPoint" />
          </mxGeometry>
        </mxCell>
        <mxCell id="F0n1GK_Awo-oAIiUYu9Y-80" value="Đúng" style="edgeLabel;html=1;align=center;verticalAlign=middle;resizable=0;points=[];fontColor=#000000;labelBackgroundColor=none;labelBorderColor=#000000;" parent="F0n1GK_Awo-oAIiUYu9Y-79" vertex="1" connectable="0">
          <mxGeometry x="0.21" y="1" relative="1" as="geometry">
            <mxPoint x="15" y="-1" as="offset" />
          </mxGeometry>
        </mxCell>
        <mxCell id="F0n1GK_Awo-oAIiUYu9Y-164" value="Đúng" style="edgeLabel;html=1;align=center;verticalAlign=middle;resizable=0;points=[];fontColor=#000000;labelBackgroundColor=#FFFFFF;labelBorderColor=#000000;" parent="F0n1GK_Awo-oAIiUYu9Y-79" vertex="1" connectable="0">
          <mxGeometry x="0.21" y="1" relative="1" as="geometry">
            <mxPoint x="15" y="-1" as="offset" />
          </mxGeometry>
        </mxCell>
        <mxCell id="F0n1GK_Awo-oAIiUYu9Y-81" value="" style="edgeStyle=none;html=1;strokeWidth=2;fontColor=#FFFFFF;labelBackgroundColor=none;strokeColor=#000000;" parent="1" edge="1">
          <mxGeometry relative="1" as="geometry">
            <mxPoint x="4394.906261859055" y="2763.002267186036" as="sourcePoint" />
            <mxPoint x="4272.118714115344" y="2762.0036290847493" as="targetPoint" />
          </mxGeometry>
        </mxCell>
        <mxCell id="F0n1GK_Awo-oAIiUYu9Y-82" value="Đúng" style="edgeLabel;html=1;align=center;verticalAlign=middle;resizable=0;points=[];fontColor=#000000;labelBackgroundColor=none;labelBorderColor=#000000;" parent="F0n1GK_Awo-oAIiUYu9Y-81" vertex="1" connectable="0">
          <mxGeometry x="-0.1942" y="2" relative="1" as="geometry">
            <mxPoint x="1" y="-2" as="offset" />
          </mxGeometry>
        </mxCell>
        <mxCell id="F0n1GK_Awo-oAIiUYu9Y-163" value="Đúng" style="edgeLabel;html=1;align=center;verticalAlign=middle;resizable=0;points=[];fontColor=#000000;labelBackgroundColor=#FFFFFF;labelBorderColor=#000000;" parent="F0n1GK_Awo-oAIiUYu9Y-81" vertex="1" connectable="0">
          <mxGeometry x="-0.1942" y="2" relative="1" as="geometry">
            <mxPoint x="1" y="-2" as="offset" />
          </mxGeometry>
        </mxCell>
        <mxCell id="F0n1GK_Awo-oAIiUYu9Y-83" value="" style="edgeStyle=none;html=1;strokeWidth=2;fontColor=#FFFFFF;labelBackgroundColor=none;strokeColor=#000000;" parent="1" edge="1">
          <mxGeometry relative="1" as="geometry">
            <mxPoint x="4210.195" y="2823" as="sourcePoint" />
            <mxPoint x="4210.195" y="2871" as="targetPoint" />
          </mxGeometry>
        </mxCell>
        <mxCell id="F0n1GK_Awo-oAIiUYu9Y-84" value="Sai" style="edgeLabel;html=1;align=center;verticalAlign=middle;resizable=0;points=[];fontColor=#000000;labelBackgroundColor=none;labelBorderColor=#000000;" parent="F0n1GK_Awo-oAIiUYu9Y-83" vertex="1" connectable="0">
          <mxGeometry x="-0.464" relative="1" as="geometry">
            <mxPoint y="6" as="offset" />
          </mxGeometry>
        </mxCell>
        <mxCell id="F0n1GK_Awo-oAIiUYu9Y-165" value="Sai" style="edgeLabel;html=1;align=center;verticalAlign=middle;resizable=0;points=[];fontColor=#000000;labelBackgroundColor=#FFFFFF;labelBorderColor=#000000;" parent="F0n1GK_Awo-oAIiUYu9Y-83" vertex="1" connectable="0">
          <mxGeometry x="-0.464" relative="1" as="geometry">
            <mxPoint y="6" as="offset" />
          </mxGeometry>
        </mxCell>
        <mxCell id="F0n1GK_Awo-oAIiUYu9Y-85" value="" style="edgeStyle=none;html=1;strokeWidth=3;fontColor=#FFFFFF;labelBackgroundColor=none;strokeColor=#000000;" parent="1" edge="1">
          <mxGeometry relative="1" as="geometry">
            <mxPoint x="4455.548126156907" y="2822.4631127981197" as="sourcePoint" />
            <mxPoint x="4453.696253162456" y="3018.5437827988653" as="targetPoint" />
          </mxGeometry>
        </mxCell>
        <mxCell id="F0n1GK_Awo-oAIiUYu9Y-86" value="Sai" style="edgeLabel;html=1;align=center;verticalAlign=middle;resizable=0;points=[];fontColor=#000000;labelBackgroundColor=none;labelBorderColor=#000000;" parent="F0n1GK_Awo-oAIiUYu9Y-85" vertex="1" connectable="0">
          <mxGeometry x="-0.2867" y="1" relative="1" as="geometry">
            <mxPoint as="offset" />
          </mxGeometry>
        </mxCell>
        <mxCell id="F0n1GK_Awo-oAIiUYu9Y-166" value="Sai" style="edgeLabel;html=1;align=center;verticalAlign=middle;resizable=0;points=[];fontColor=#000000;labelBackgroundColor=#FFFFFF;labelBorderColor=#000000;" parent="F0n1GK_Awo-oAIiUYu9Y-85" vertex="1" connectable="0">
          <mxGeometry x="-0.2867" y="1" relative="1" as="geometry">
            <mxPoint as="offset" />
          </mxGeometry>
        </mxCell>
        <mxCell id="F0n1GK_Awo-oAIiUYu9Y-92" value="C" style="ellipse;whiteSpace=wrap;html=1;aspect=fixed;labelBackgroundColor=none;strokeColor=#C73500;strokeWidth=3;fontColor=#000000;fillColor=#fa6800;" parent="1" vertex="1">
          <mxGeometry x="3731" y="2300" width="80" height="80" as="geometry" />
        </mxCell>
        <mxCell id="F0n1GK_Awo-oAIiUYu9Y-93" value="B" style="ellipse;whiteSpace=wrap;html=1;aspect=fixed;labelBackgroundColor=none;strokeColor=#C73500;strokeWidth=3;fontColor=#000000;fillColor=#fa6800;" parent="1" vertex="1">
          <mxGeometry x="4416.110000000001" y="2300" width="80" height="80" as="geometry" />
        </mxCell>
        <mxCell id="F0n1GK_Awo-oAIiUYu9Y-102" value="" style="edgeStyle=none;rounded=1;html=1;labelBackgroundColor=none;strokeColor=#000000;strokeWidth=2;fontColor=#000000;" parent="1" source="F0n1GK_Awo-oAIiUYu9Y-96" target="F0n1GK_Awo-oAIiUYu9Y-101" edge="1">
          <mxGeometry relative="1" as="geometry" />
        </mxCell>
        <mxCell id="F0n1GK_Awo-oAIiUYu9Y-118" value="Đúng" style="edgeLabel;html=1;align=center;verticalAlign=middle;resizable=0;points=[];fontColor=#000000;labelBackgroundColor=#FFFFFF;labelBorderColor=#000000;" parent="F0n1GK_Awo-oAIiUYu9Y-102" vertex="1" connectable="0">
          <mxGeometry x="-0.2331" relative="1" as="geometry">
            <mxPoint as="offset" />
          </mxGeometry>
        </mxCell>
        <mxCell id="F0n1GK_Awo-oAIiUYu9Y-151" style="edgeStyle=none;rounded=1;html=1;exitX=0;exitY=0.5;exitDx=0;exitDy=0;labelBackgroundColor=none;strokeColor=#000000;strokeWidth=2;fontColor=#000000;" parent="1" source="F0n1GK_Awo-oAIiUYu9Y-96" edge="1">
          <mxGeometry relative="1" as="geometry">
            <mxPoint x="2007" y="2429" as="targetPoint" />
          </mxGeometry>
        </mxCell>
        <mxCell id="F0n1GK_Awo-oAIiUYu9Y-152" value="Sai" style="edgeLabel;html=1;align=center;verticalAlign=middle;resizable=0;points=[];fontColor=#000000;labelBackgroundColor=#FFFFFF;labelBorderColor=#000000;" parent="F0n1GK_Awo-oAIiUYu9Y-151" vertex="1" connectable="0">
          <mxGeometry x="-0.7338" y="3" relative="1" as="geometry">
            <mxPoint x="1" y="-3" as="offset" />
          </mxGeometry>
        </mxCell>
        <mxCell id="F0n1GK_Awo-oAIiUYu9Y-96" value="UART có kí tự được truyền đến" style="rhombus;whiteSpace=wrap;html=1;labelBackgroundColor=none;labelBorderColor=none;strokeColor=#000000;strokeWidth=3;fontColor=#000000;fillColor=none;" parent="1" vertex="1">
          <mxGeometry x="2316.5" y="2355" width="143" height="143" as="geometry" />
        </mxCell>
        <mxCell id="F0n1GK_Awo-oAIiUYu9Y-104" value="" style="edgeStyle=none;rounded=1;html=1;labelBackgroundColor=none;strokeColor=#000000;strokeWidth=2;fontColor=#000000;entryX=0.5;entryY=0;entryDx=0;entryDy=0;" parent="1" source="F0n1GK_Awo-oAIiUYu9Y-101" target="F0n1GK_Awo-oAIiUYu9Y-105" edge="1">
          <mxGeometry relative="1" as="geometry">
            <mxPoint x="2388" y="2738.75" as="targetPoint" />
          </mxGeometry>
        </mxCell>
        <mxCell id="F0n1GK_Awo-oAIiUYu9Y-101" value="Đọc kí tự" style="whiteSpace=wrap;html=1;fillColor=none;strokeColor=#000000;fontColor=#000000;labelBackgroundColor=none;labelBorderColor=none;strokeWidth=3;" parent="1" vertex="1">
          <mxGeometry x="2311.5" y="2551.25" width="153" height="78.5" as="geometry" />
        </mxCell>
        <mxCell id="F0n1GK_Awo-oAIiUYu9Y-107" value="" style="edgeStyle=none;rounded=1;html=1;labelBackgroundColor=none;strokeColor=#000000;strokeWidth=2;fontColor=#000000;" parent="1" source="F0n1GK_Awo-oAIiUYu9Y-105" target="F0n1GK_Awo-oAIiUYu9Y-106" edge="1">
          <mxGeometry relative="1" as="geometry" />
        </mxCell>
        <mxCell id="F0n1GK_Awo-oAIiUYu9Y-117" value="Sai" style="edgeLabel;html=1;align=center;verticalAlign=middle;resizable=0;points=[];fontColor=#000000;labelBackgroundColor=#FFFFFF;labelBorderColor=#000000;" parent="F0n1GK_Awo-oAIiUYu9Y-107" vertex="1" connectable="0">
          <mxGeometry x="-0.3987" relative="1" as="geometry">
            <mxPoint y="7" as="offset" />
          </mxGeometry>
        </mxCell>
        <mxCell id="F0n1GK_Awo-oAIiUYu9Y-115" value="" style="edgeStyle=none;rounded=1;html=1;labelBackgroundColor=none;strokeColor=#000000;strokeWidth=2;fontColor=#000000;" parent="1" source="F0n1GK_Awo-oAIiUYu9Y-105" target="F0n1GK_Awo-oAIiUYu9Y-114" edge="1">
          <mxGeometry relative="1" as="geometry" />
        </mxCell>
        <mxCell id="F0n1GK_Awo-oAIiUYu9Y-116" value="Đúng" style="edgeLabel;html=1;align=center;verticalAlign=middle;resizable=0;points=[];fontColor=#000000;labelBackgroundColor=#FFFFFF;labelBorderColor=#000000;" parent="F0n1GK_Awo-oAIiUYu9Y-115" vertex="1" connectable="0">
          <mxGeometry x="-0.4161" relative="1" as="geometry">
            <mxPoint x="-9" as="offset" />
          </mxGeometry>
        </mxCell>
        <mxCell id="F0n1GK_Awo-oAIiUYu9Y-105" value="Kí tự &quot;b&quot;" style="rhombus;whiteSpace=wrap;html=1;labelBackgroundColor=none;labelBorderColor=none;strokeColor=#000000;strokeWidth=3;fontColor=#000000;fillColor=none;" parent="1" vertex="1">
          <mxGeometry x="2316.5" y="2684" width="143" height="143" as="geometry" />
        </mxCell>
        <mxCell id="F0n1GK_Awo-oAIiUYu9Y-109" value="" style="edgeStyle=none;rounded=1;html=1;labelBackgroundColor=none;strokeColor=#000000;strokeWidth=2;fontColor=#000000;" parent="1" source="F0n1GK_Awo-oAIiUYu9Y-106" target="F0n1GK_Awo-oAIiUYu9Y-108" edge="1">
          <mxGeometry relative="1" as="geometry" />
        </mxCell>
        <mxCell id="F0n1GK_Awo-oAIiUYu9Y-125" value="Sai" style="edgeLabel;html=1;align=center;verticalAlign=middle;resizable=0;points=[];fontColor=#000000;labelBackgroundColor=#FFFFFF;labelBorderColor=#000000;" parent="F0n1GK_Awo-oAIiUYu9Y-109" vertex="1" connectable="0">
          <mxGeometry x="-0.4563" relative="1" as="geometry">
            <mxPoint y="7" as="offset" />
          </mxGeometry>
        </mxCell>
        <mxCell id="F0n1GK_Awo-oAIiUYu9Y-122" value="" style="edgeStyle=none;rounded=1;html=1;labelBackgroundColor=none;strokeColor=#000000;strokeWidth=2;fontColor=#FFFFFF;" parent="1" source="F0n1GK_Awo-oAIiUYu9Y-106" target="F0n1GK_Awo-oAIiUYu9Y-121" edge="1">
          <mxGeometry relative="1" as="geometry" />
        </mxCell>
        <mxCell id="F0n1GK_Awo-oAIiUYu9Y-123" value="Đúng" style="edgeLabel;html=1;align=center;verticalAlign=middle;resizable=0;points=[];fontColor=#000000;labelBackgroundColor=#FFFFFF;labelBorderColor=#000000;" parent="F0n1GK_Awo-oAIiUYu9Y-122" vertex="1" connectable="0">
          <mxGeometry x="-0.2254" y="3" relative="1" as="geometry">
            <mxPoint x="-5" y="-3" as="offset" />
          </mxGeometry>
        </mxCell>
        <mxCell id="F0n1GK_Awo-oAIiUYu9Y-106" value="Kí tự &quot;l&quot;" style="rhombus;whiteSpace=wrap;html=1;labelBackgroundColor=none;labelBorderColor=none;strokeColor=#000000;strokeWidth=3;fontColor=#000000;fillColor=none;" parent="1" vertex="1">
          <mxGeometry x="2316.5" y="2882" width="143" height="143" as="geometry" />
        </mxCell>
        <mxCell id="F0n1GK_Awo-oAIiUYu9Y-111" value="" style="edgeStyle=none;rounded=1;html=1;labelBackgroundColor=none;strokeColor=#000000;strokeWidth=2;fontColor=#000000;" parent="1" source="F0n1GK_Awo-oAIiUYu9Y-108" target="F0n1GK_Awo-oAIiUYu9Y-110" edge="1">
          <mxGeometry relative="1" as="geometry" />
        </mxCell>
        <mxCell id="F0n1GK_Awo-oAIiUYu9Y-132" value="Sai" style="edgeLabel;html=1;align=center;verticalAlign=middle;resizable=0;points=[];fontColor=#000000;labelBackgroundColor=#FFFFFF;labelBorderColor=#000000;" parent="F0n1GK_Awo-oAIiUYu9Y-111" vertex="1" connectable="0">
          <mxGeometry x="-0.4098" y="1" relative="1" as="geometry">
            <mxPoint x="-1" y="6" as="offset" />
          </mxGeometry>
        </mxCell>
        <mxCell id="F0n1GK_Awo-oAIiUYu9Y-127" value="" style="edgeStyle=none;rounded=1;html=1;labelBackgroundColor=none;strokeColor=#000000;strokeWidth=2;fontColor=#FFFFFF;" parent="1" source="F0n1GK_Awo-oAIiUYu9Y-108" target="F0n1GK_Awo-oAIiUYu9Y-126" edge="1">
          <mxGeometry relative="1" as="geometry" />
        </mxCell>
        <mxCell id="F0n1GK_Awo-oAIiUYu9Y-128" value="Đúng" style="edgeLabel;html=1;align=center;verticalAlign=middle;resizable=0;points=[];fontColor=#000000;labelBackgroundColor=#FFFFFF;labelBorderColor=#000000;" parent="F0n1GK_Awo-oAIiUYu9Y-127" vertex="1" connectable="0">
          <mxGeometry x="-0.3741" relative="1" as="geometry">
            <mxPoint x="-7" as="offset" />
          </mxGeometry>
        </mxCell>
        <mxCell id="F0n1GK_Awo-oAIiUYu9Y-108" value="Kí tự &quot;c&quot;" style="rhombus;whiteSpace=wrap;html=1;labelBackgroundColor=none;labelBorderColor=none;strokeColor=#000000;strokeWidth=3;fontColor=#000000;fillColor=none;" parent="1" vertex="1">
          <mxGeometry x="2316.5" y="3081" width="143" height="143" as="geometry" />
        </mxCell>
        <mxCell id="F0n1GK_Awo-oAIiUYu9Y-113" value="" style="edgeStyle=none;rounded=1;html=1;labelBackgroundColor=none;strokeColor=#000000;strokeWidth=2;fontColor=#000000;" parent="1" source="F0n1GK_Awo-oAIiUYu9Y-110" target="F0n1GK_Awo-oAIiUYu9Y-112" edge="1">
          <mxGeometry relative="1" as="geometry" />
        </mxCell>
        <mxCell id="F0n1GK_Awo-oAIiUYu9Y-133" value="Sai" style="edgeLabel;html=1;align=center;verticalAlign=middle;resizable=0;points=[];fontColor=#000000;labelBackgroundColor=#FFFFFF;labelBorderColor=#000000;" parent="F0n1GK_Awo-oAIiUYu9Y-113" vertex="1" connectable="0">
          <mxGeometry x="-0.3472" y="1" relative="1" as="geometry">
            <mxPoint x="-1" y="6" as="offset" />
          </mxGeometry>
        </mxCell>
        <mxCell id="F0n1GK_Awo-oAIiUYu9Y-130" value="" style="edgeStyle=none;rounded=1;html=1;labelBackgroundColor=none;strokeColor=#000000;strokeWidth=2;fontColor=#FFFFFF;" parent="1" source="F0n1GK_Awo-oAIiUYu9Y-110" target="F0n1GK_Awo-oAIiUYu9Y-129" edge="1">
          <mxGeometry relative="1" as="geometry" />
        </mxCell>
        <mxCell id="F0n1GK_Awo-oAIiUYu9Y-131" value="Đúng" style="edgeLabel;html=1;align=center;verticalAlign=middle;resizable=0;points=[];fontColor=#000000;labelBackgroundColor=#FFFFFF;labelBorderColor=#000000;" parent="F0n1GK_Awo-oAIiUYu9Y-130" vertex="1" connectable="0">
          <mxGeometry x="-0.3371" y="2" relative="1" as="geometry">
            <mxPoint x="-4" y="-2" as="offset" />
          </mxGeometry>
        </mxCell>
        <mxCell id="F0n1GK_Awo-oAIiUYu9Y-110" value="Kí tự kết thúc xâu &quot;\r&quot;" style="rhombus;whiteSpace=wrap;html=1;labelBackgroundColor=none;labelBorderColor=none;strokeColor=#000000;strokeWidth=3;fontColor=#000000;fillColor=none;" parent="1" vertex="1">
          <mxGeometry x="2316.5" y="3285" width="143" height="143" as="geometry" />
        </mxCell>
        <mxCell id="F0n1GK_Awo-oAIiUYu9Y-135" value="" style="edgeStyle=none;rounded=1;html=1;labelBackgroundColor=none;strokeColor=#000000;strokeWidth=2;fontColor=#FFFFFF;" parent="1" source="F0n1GK_Awo-oAIiUYu9Y-112" target="F0n1GK_Awo-oAIiUYu9Y-134" edge="1">
          <mxGeometry relative="1" as="geometry" />
        </mxCell>
        <mxCell id="F0n1GK_Awo-oAIiUYu9Y-136" value="Đúng" style="edgeLabel;html=1;align=center;verticalAlign=middle;resizable=0;points=[];fontColor=#000000;labelBackgroundColor=#FFFFFF;labelBorderColor=#000000;" parent="F0n1GK_Awo-oAIiUYu9Y-135" vertex="1" connectable="0">
          <mxGeometry x="-0.3577" relative="1" as="geometry">
            <mxPoint x="-5" as="offset" />
          </mxGeometry>
        </mxCell>
        <mxCell id="F0n1GK_Awo-oAIiUYu9Y-137" style="edgeStyle=none;rounded=1;html=1;exitX=0.5;exitY=1;exitDx=0;exitDy=0;labelBackgroundColor=none;strokeColor=#000000;strokeWidth=2;fontColor=#FFFFFF;entryX=0.5;entryY=1;entryDx=0;entryDy=0;" parent="1" source="F0n1GK_Awo-oAIiUYu9Y-112" target="F0n1GK_Awo-oAIiUYu9Y-139" edge="1">
          <mxGeometry relative="1" as="geometry">
            <mxPoint x="2019" y="2319" as="targetPoint" />
            <Array as="points">
              <mxPoint x="2388" y="3683" />
              <mxPoint x="2009" y="3684" />
            </Array>
          </mxGeometry>
        </mxCell>
        <mxCell id="F0n1GK_Awo-oAIiUYu9Y-138" value="Sai" style="edgeLabel;html=1;align=center;verticalAlign=middle;resizable=0;points=[];fontColor=#000000;labelBackgroundColor=#FFFFFF;labelBorderColor=#000000;" parent="F0n1GK_Awo-oAIiUYu9Y-137" vertex="1" connectable="0">
          <mxGeometry x="-0.2942" relative="1" as="geometry">
            <mxPoint x="378" y="171" as="offset" />
          </mxGeometry>
        </mxCell>
        <mxCell id="F0n1GK_Awo-oAIiUYu9Y-112" value="Kí tự tồn tại trong&lt;br&gt;bảng mã Morse" style="rhombus;whiteSpace=wrap;html=1;labelBackgroundColor=none;labelBorderColor=none;strokeColor=#000000;strokeWidth=3;fontColor=#000000;fillColor=none;" parent="1" vertex="1">
          <mxGeometry x="2316.5" y="3483" width="143" height="143" as="geometry" />
        </mxCell>
        <mxCell id="n6yI3UAqPEfnuCZQ3e1F-1" style="edgeStyle=orthogonalEdgeStyle;rounded=0;orthogonalLoop=1;jettySize=auto;html=1;exitX=0;exitY=0.5;exitDx=0;exitDy=0;" parent="1" source="F0n1GK_Awo-oAIiUYu9Y-114" edge="1">
          <mxGeometry relative="1" as="geometry">
            <mxPoint x="2009" y="2755.5306122448983" as="targetPoint" />
          </mxGeometry>
        </mxCell>
        <mxCell id="F0n1GK_Awo-oAIiUYu9Y-114" value="Phát mã Morse của xâu kí tự&lt;br&gt;bằng Buzzer" style="whiteSpace=wrap;html=1;fillColor=none;strokeColor=#000000;fontColor=#000000;labelBackgroundColor=none;strokeWidth=3;" parent="1" vertex="1">
          <mxGeometry x="2086" y="2725.5" width="163.63" height="60" as="geometry" />
        </mxCell>
        <mxCell id="F0n1GK_Awo-oAIiUYu9Y-144" style="edgeStyle=none;rounded=1;html=1;exitX=0;exitY=0.5;exitDx=0;exitDy=0;labelBackgroundColor=none;strokeColor=#000000;strokeWidth=2;fontColor=#FFFFFF;" parent="1" source="F0n1GK_Awo-oAIiUYu9Y-121" edge="1">
          <mxGeometry relative="1" as="geometry">
            <mxPoint x="2009" y="2954" as="targetPoint" />
          </mxGeometry>
        </mxCell>
        <mxCell id="F0n1GK_Awo-oAIiUYu9Y-121" value="Phát mã Morse của xâu kí tự&lt;br&gt;bằng LED" style="whiteSpace=wrap;html=1;fillColor=none;strokeColor=#000000;fontColor=#000000;labelBackgroundColor=none;strokeWidth=3;" parent="1" vertex="1">
          <mxGeometry x="2086" y="2923.5" width="163.63" height="60" as="geometry" />
        </mxCell>
        <mxCell id="n6yI3UAqPEfnuCZQ3e1F-2" style="edgeStyle=orthogonalEdgeStyle;rounded=0;orthogonalLoop=1;jettySize=auto;html=1;exitX=0;exitY=0.5;exitDx=0;exitDy=0;" parent="1" source="F0n1GK_Awo-oAIiUYu9Y-126" edge="1">
          <mxGeometry relative="1" as="geometry">
            <mxPoint x="2009" y="3152.5374149659865" as="targetPoint" />
          </mxGeometry>
        </mxCell>
        <mxCell id="F0n1GK_Awo-oAIiUYu9Y-126" value="Clear hết bộ nhớ kí tự và buffer, clear màn hình" style="whiteSpace=wrap;html=1;fillColor=none;strokeColor=#000000;fontColor=#000000;labelBackgroundColor=none;strokeWidth=3;" parent="1" vertex="1">
          <mxGeometry x="2086" y="3122.5" width="163.63" height="60" as="geometry" />
        </mxCell>
        <mxCell id="n6yI3UAqPEfnuCZQ3e1F-3" style="edgeStyle=orthogonalEdgeStyle;rounded=0;orthogonalLoop=1;jettySize=auto;html=1;exitX=0;exitY=0.5;exitDx=0;exitDy=0;" parent="1" source="F0n1GK_Awo-oAIiUYu9Y-129" edge="1">
          <mxGeometry relative="1" as="geometry">
            <mxPoint x="2009" y="3356.482993197279" as="targetPoint" />
          </mxGeometry>
        </mxCell>
        <mxCell id="F0n1GK_Awo-oAIiUYu9Y-129" value="Hiện các kí tự đang có trong xâu kí tự lên màn hình LCD" style="whiteSpace=wrap;html=1;fillColor=none;strokeColor=#000000;fontColor=#000000;labelBackgroundColor=none;strokeWidth=3;" parent="1" vertex="1">
          <mxGeometry x="2088" y="3326.5" width="163.63" height="60" as="geometry" />
        </mxCell>
        <mxCell id="n6yI3UAqPEfnuCZQ3e1F-4" style="edgeStyle=orthogonalEdgeStyle;rounded=0;orthogonalLoop=1;jettySize=auto;html=1;exitX=0;exitY=0.5;exitDx=0;exitDy=0;" parent="1" source="F0n1GK_Awo-oAIiUYu9Y-134" edge="1">
          <mxGeometry relative="1" as="geometry">
            <mxPoint x="2009" y="3554.4421768707484" as="targetPoint" />
          </mxGeometry>
        </mxCell>
        <mxCell id="F0n1GK_Awo-oAIiUYu9Y-134" value="Thêm kí tự vào xâu kí tự" style="whiteSpace=wrap;html=1;fillColor=none;strokeColor=#000000;fontColor=#000000;labelBackgroundColor=none;strokeWidth=3;" parent="1" vertex="1">
          <mxGeometry x="2088" y="3524.5" width="163.63" height="60" as="geometry" />
        </mxCell>
        <mxCell id="F0n1GK_Awo-oAIiUYu9Y-139" value="C" style="ellipse;whiteSpace=wrap;html=1;aspect=fixed;labelBackgroundColor=none;strokeColor=#C73500;strokeWidth=3;fontColor=#000000;fillColor=#fa6800;" parent="1" vertex="1">
          <mxGeometry x="1968" y="2227" width="80" height="80" as="geometry" />
        </mxCell>
        <mxCell id="F0n1GK_Awo-oAIiUYu9Y-150" value="" style="endArrow=none;html=1;rounded=1;labelBackgroundColor=none;strokeColor=#000000;strokeWidth=2;fontColor=#FFFFFF;" parent="1" edge="1">
          <mxGeometry width="50" height="50" relative="1" as="geometry">
            <mxPoint x="1435" y="652" as="sourcePoint" />
            <mxPoint x="1435" y="652" as="targetPoint" />
            <Array as="points">
              <mxPoint x="4985" y="652" />
              <mxPoint x="4985" y="4229" />
              <mxPoint x="1435" y="4252" />
            </Array>
          </mxGeometry>
        </mxCell>
      </root>
    </mxGraphModel>
  </diagram>
</mxfile>
